<?xml version="1.0" encoding="iso-8859-1"?>
<!-- Generator: Adobe Illustrator 19.0.0, SVG Export Plug-In . SVG Version: 6.00 Build 0)  -->
<svg version="1.1" id="Layer_1" xmlns="http://www.w3.org/2000/svg" xmlns:xlink="http://www.w3.org/1999/xlink" x="0px" y="0px"
	 viewBox="0 0 512 512" style="enable-background:new 0 0 512 512;" xml:space="preserve">
<path style="fill:#ABABAB;" d="M256,10.199C120.248,10.199,10.199,120.248,10.199,256S120.248,501.801,256,501.801
	S501.801,391.752,501.801,256S391.752,10.199,256,10.199z M339.359,106.713c18.322-18.322,48.028-18.322,66.35,0
	s18.322,48.028,0,66.35s-48.028,18.322-66.35,0S321.037,125.035,339.359,106.713z M256,43.857c25.911,0,46.916,21.005,46.916,46.916
	S281.911,137.689,256,137.689s-46.916-21.005-46.916-46.916S230.089,43.857,256,43.857z M42.837,254.98
	c0-25.911,21.005-46.916,46.916-46.916s46.916,21.005,46.916,46.916s-21.005,46.916-46.916,46.916S42.837,280.891,42.837,254.98z
	 M170.601,405.287c-18.322,18.322-48.028,18.322-66.35,0s-18.322-48.028,0-66.35s48.028-18.322,66.35,0
	S188.923,386.965,170.601,405.287z M172.043,171.621c-18.322,18.322-48.028,18.322-66.35,0s-18.322-48.028,0-66.35
	s48.028-18.322,66.35,0S190.365,153.298,172.043,171.621z M253.96,468.143c-25.911,0-46.916-21.005-46.916-46.916
	s21.005-46.916,46.916-46.916s46.916,21.005,46.916,46.916S279.871,468.143,253.96,468.143z M256,305.976
	c-27.601,0-49.976-22.375-49.976-49.976s22.375-49.976,49.976-49.976c27.601,0,49.976,22.375,49.976,49.976
	C305.976,283.601,283.601,305.976,256,305.976z M404.267,406.729c-18.322,18.322-48.028,18.322-66.35,0s-18.322-48.028,0-66.35
	s48.028-18.322,66.35,0S422.589,388.407,404.267,406.729z M420.207,303.936c-25.911,0-46.916-21.005-46.916-46.916
	s21.005-46.916,46.916-46.916s46.916,21.005,46.916,46.916S446.118,303.936,420.207,303.936z"/>
<path style="fill:#FFFFFF;" d="M256,169.307c-47.879,0-86.693,38.814-86.693,86.693s38.814,86.693,86.693,86.693
	s86.693-38.814,86.693-86.693S303.879,169.307,256,169.307z M256,305.976c-27.601,0-49.976-22.375-49.976-49.976
	s22.375-49.976,49.976-49.976c27.601,0,49.976,22.375,49.976,49.976C305.976,283.601,283.601,305.976,256,305.976z"/>
<path d="M437.019,74.98C388.667,26.628,324.381,0,256,0S123.333,26.628,74.981,74.98C26.628,123.333,0,187.62,0,256
	s26.628,132.667,74.981,181.02C123.333,485.372,187.619,512,256,512s132.667-26.628,181.019-74.98
	C485.372,388.667,512,324.38,512,256S485.372,123.333,437.019,74.98z M256,491.602c-129.911,0-235.602-105.69-235.602-235.602
	S126.089,20.398,256,20.398S491.602,126.089,491.602,256S385.911,491.602,256,491.602z"/>
<path d="M372.535,197.004c15.256,0,29.599-5.941,40.387-16.729c10.788-10.788,16.729-25.131,16.729-40.387
	s-5.941-29.599-16.729-40.387c-10.788-10.788-25.131-16.729-40.387-16.729c-15.257,0-29.599,5.941-40.388,16.729l0,0
	c-22.269,22.269-22.269,58.505,0,80.774C342.935,191.063,357.278,197.004,372.535,197.004z M346.572,113.925L346.572,113.925
	c6.934-6.935,16.156-10.754,25.963-10.754c9.807,0,19.028,3.82,25.962,10.754c6.935,6.934,10.755,16.156,10.755,25.963
	s-3.82,19.028-10.755,25.963c-6.934,6.934-16.156,10.754-25.962,10.754c-9.808,0-19.029-3.82-25.963-10.754
	C332.256,151.535,332.256,128.241,346.572,113.925z"/>
<path d="M420.207,199.904c-31.494,0-57.116,25.622-57.116,57.116s25.621,57.116,57.116,57.116s57.116-25.622,57.116-57.116
	S451.701,199.904,420.207,199.904z M420.207,293.737c-20.246,0-36.717-16.471-36.717-36.717s16.471-36.717,36.717-36.717
	s36.717,16.471,36.717,36.717C456.924,277.266,440.454,293.737,420.207,293.737z"/>
<path d="M137.425,314.996c-15.256,0-29.599,5.941-40.387,16.729S80.31,356.856,80.31,372.112s5.941,29.599,16.729,40.387
	c11.134,11.134,25.761,16.701,40.387,16.701c14.627,0,29.253-5.567,40.388-16.701l0,0c22.269-22.269,22.269-58.504,0-80.773
	C167.025,320.937,152.682,314.996,137.425,314.996z M163.388,398.075c-6.934,6.935-16.156,10.754-25.963,10.754
	c-9.807,0-19.028-3.82-25.962-10.754c-6.935-6.934-10.755-16.156-10.755-25.963s3.82-19.028,10.755-25.963
	c6.934-6.934,16.156-10.754,25.962-10.754c9.808,0,19.029,3.82,25.963,10.754C177.704,360.465,177.704,383.759,163.388,398.075z"/>
<path d="M146.869,254.98c0-31.493-25.621-57.116-57.116-57.116s-57.116,25.622-57.116,57.116s25.621,57.116,57.116,57.116
	S146.869,286.473,146.869,254.98z M53.036,254.98c0-20.246,16.471-36.717,36.717-36.717s36.717,16.471,36.717,36.717
	s-16.471,36.717-36.717,36.717S53.036,275.227,53.036,254.98z"/>
<path d="M256,147.888c31.494,0,57.116-25.622,57.116-57.116S287.494,33.657,256,33.657s-57.116,25.622-57.116,57.116
	S224.506,147.888,256,147.888z M256,54.056c20.246,0,36.717,16.471,36.717,36.717S276.246,127.49,256,127.49
	s-36.717-16.471-36.717-36.717S235.754,54.056,256,54.056z"/>
<path d="M371.093,316.438c-15.257,0-29.599,5.941-40.388,16.729c-22.269,22.269-22.269,58.504,0,80.773
	c10.788,10.788,25.131,16.729,40.388,16.729c15.256,0,29.599-5.941,40.387-16.729c10.788-10.788,16.728-25.131,16.728-40.387
	s-5.94-29.599-16.728-40.387C400.691,322.379,386.349,316.438,371.093,316.438z M397.055,399.517L397.055,399.517
	c-6.934,6.935-16.156,10.754-25.962,10.754c-9.808,0-19.029-3.82-25.963-10.754c-14.316-14.316-14.316-37.61,0-51.926
	c6.934-6.934,16.156-10.754,25.963-10.754c9.807,0,19.028,3.82,25.962,10.754c6.935,6.934,10.754,16.154,10.754,25.963
	C407.809,383.363,403.99,392.583,397.055,399.517z"/>
<path d="M253.96,364.112c-31.494,0-57.116,25.622-57.116,57.116s25.621,57.116,57.116,57.116s57.116-25.622,57.116-57.116
	S285.454,364.112,253.96,364.112z M253.96,457.944c-20.246,0-36.717-16.471-36.717-36.717c0-20.246,16.471-36.717,36.717-36.717
	s36.717,16.471,36.717,36.717C290.677,441.474,274.207,457.944,253.96,457.944z"/>
<path d="M138.867,195.534c14.627,0,29.253-5.567,40.388-16.702c22.269-22.269,22.269-58.504,0-80.774
	c-10.788-10.788-25.131-16.729-40.388-16.729c-15.256,0-29.599,5.941-40.387,16.729c-22.269,22.269-22.269,58.504,0,80.774
	C109.616,189.967,124.242,195.534,138.867,195.534z M112.905,112.483c7.159-7.159,16.558-10.737,25.963-10.737
	c9.401,0,18.805,3.58,25.962,10.737c14.316,14.317,14.316,37.611,0,51.927l0,0c-14.314,14.316-37.608,14.318-51.925,0
	C98.59,150.092,98.59,126.799,112.905,112.483z"/>
<path d="M256,159.108c-53.426,0-96.892,43.466-96.892,96.892s43.466,96.892,96.892,96.892s96.892-43.466,96.892-96.892
	S309.426,159.108,256,159.108z M256,332.494c-42.179,0-76.494-34.315-76.494-76.494s34.315-76.494,76.494-76.494
	s76.494,34.315,76.494,76.494S298.179,332.494,256,332.494z"/>
<path d="M256,195.825c-33.181,0-60.175,26.994-60.175,60.175s26.994,60.175,60.175,60.175s60.175-26.994,60.175-60.175
	S289.181,195.825,256,195.825z M256,295.777c-21.933,0-39.777-17.844-39.777-39.777c0-21.933,17.844-39.777,39.777-39.777
	c21.933,0,39.777,17.844,39.777,39.777C295.777,277.933,277.933,295.777,256,295.777z"/>
<g>
</g>
<g>
</g>
<g>
</g>
<g>
</g>
<g>
</g>
<g>
</g>
<g>
</g>
<g>
</g>
<g>
</g>
<g>
</g>
<g>
</g>
<g>
</g>
<g>
</g>
<g>
</g>
<g>
</g>
</svg>
